<svg id="Capa_1" enable-background="new 0 0 512 512" height="512" viewBox="0 0 512 512" width="512"  fill="#fd5" xmlns="http://www.w3.org/2000/svg"><g><path d="m459.736 193.541c-8.561 0-15.5 6.94-15.5 15.5v105.445c0 8.561-6.94 15.501-15.5 15.501h-345.471c-8.561 0-15.5-6.94-15.5-15.501v-105.444c0-8.561-6.94-15.5-15.5-15.5h-33.385c-10.427 0-18.88 8.453-18.88 18.88v159.803c0 8.561 6.94 15.5 15.5 15.5h50.5v18.044c0 8.103 6.226 15.098 14.321 15.456 8.593.378 15.679-6.477 15.679-14.986v-18.514h320v18.044c0 8.103 6.226 15.098 14.321 15.456 8.593.379 15.679-6.476 15.679-14.985v-18.514h50.5c8.561 0 15.5-6.94 15.5-15.5v-159.805c0-10.427-8.453-18.88-18.88-18.88z"/><g><g><path d="m97.765 212.423v27.703h143.242v-136.298c-8.555-8.084-20.068-13.067-32.695-13.067h-100.783c-26.232 0-47.695 21.463-47.695 47.695v26.337c21.696 4.989 37.931 24.443 37.931 47.63z"/><path d="m241.006 270.126h-143.241v7.422 22.439h143.294c-.024-.345-.053-.689-.053-1.04v-21.399z"/></g><g><path d="m414.235 212.424c0-23.193 16.241-42.65 37.943-47.633v-26.335c0-26.232-21.463-47.695-47.695-47.695h-100.782c-12.627 0-24.14 4.982-32.695 13.067v136.298h143.229z"/><path d="m414.235 277.549v-7.422h-143.229v7.422 21.399c0 .351-.029.695-.052 1.04h143.282v-22.439z"/></g></g></g></svg>