<svg width="93" height="93" viewBox="0 0 93 93" fill="none" xmlns="http://www.w3.org/2000/svg">
<g clip-path="url(#clip0)">
<path d="M70.9214 86.4918C64.1161 87.8369 51.1391 90.0938 40.6875 90.0938C25.4876 90.0938 7.42057 85.1789 6.00214 85.8877C4.72539 86.5256 3.1878 85.991 2.94095 84.6692C8.29717 75.9941 4.35938 87.8803 4.35938 56.6719C4.35938 54.3042 4.96206 49.3603 6.10313 42.3748C6.13388 42.1864 6.12723 41.9939 6.08356 41.8081C6.0399 41.6224 5.96007 41.447 5.84864 41.2921C5.73721 41.1372 5.59635 41.0057 5.43412 40.9053C5.27189 40.8048 5.09146 40.7372 4.90312 40.7065C4.71479 40.6757 4.52224 40.6824 4.33648 40.7261C4.15071 40.7697 3.97537 40.8495 3.82045 40.961C3.66554 41.0724 3.53409 41.2133 3.43361 41.3755C3.33313 41.5377 3.26559 41.7182 3.23484 41.9065C2.05254 49.1461 1.45313 54.114 1.45313 56.6719C1.45313 71.77 2.38731 77.7538 2.79564 79.6478L0.24413 83.4753C-0.367636 84.3933 0.110079 87.0148 2.22401 88.3211C2.90487 88.7358 3.67276 88.9866 4.46712 89.0537C5.26147 89.1208 6.06056 89.0025 6.80136 88.708C33.5399 94.5024 47.7922 94.0259 71.4852 89.3438C71.6725 89.3068 71.8506 89.2333 72.0095 89.1275C72.1683 89.0217 72.3047 88.8856 72.411 88.7271C72.5173 88.5685 72.5913 88.3906 72.6288 88.2034C72.6663 88.0163 72.6665 87.8236 72.6296 87.6363C72.5926 87.4491 72.5191 87.271 72.4133 87.1121C72.3075 86.9533 72.1714 86.8168 72.0128 86.7106C71.8543 86.6043 71.6764 86.5303 71.4892 86.4928C71.3021 86.4553 71.1094 86.455 70.9221 86.492L70.9214 86.4918Z" fill="#FFC107" fill-opacity="0.9"/>
<path d="M4.35938 37.7812H37.7812C38.1666 37.7812 38.5363 37.6282 38.8088 37.3556C39.0813 37.0831 39.2344 36.7135 39.2344 36.3281C39.2344 35.9427 39.0813 35.5731 38.8088 35.3006C38.5363 35.0281 38.1666 34.875 37.7812 34.875H4.35938C3.97398 34.875 3.60437 34.7219 3.33186 34.4494C3.05935 34.1769 2.90625 33.8073 2.90625 33.4219C2.90625 33.0365 3.05935 32.6669 3.33186 32.3944C3.60437 32.1218 3.97398 31.9688 4.35938 31.9688H15.9844C16.3698 31.9688 16.7394 31.8157 17.0119 31.5431C17.2844 31.2706 17.4375 30.901 17.4375 30.5156C17.4375 30.1302 17.2844 29.7606 17.0119 29.4881C16.7394 29.2156 16.3698 29.0625 15.9844 29.0625H4.35938C3.97398 29.0625 3.60437 28.9094 3.33186 28.6369C3.05935 28.3644 2.90625 27.9948 2.90625 27.6094C2.90625 27.224 3.05935 26.8544 3.33186 26.5819C3.60437 26.3093 3.97398 26.1562 4.35938 26.1562H66.8438C67.2291 26.1562 67.5988 26.0032 67.8713 25.7306C68.1438 25.4581 68.2969 25.0885 68.2969 24.7031C68.2969 24.3177 68.1438 23.9481 67.8713 23.6756C67.5988 23.4031 67.2291 23.25 66.8438 23.25H4.35938C0.58125 23.25 -1.38047 27.7334 1.11273 30.5156C-1.37902 33.2964 0.578707 37.7812 4.35938 37.7812Z" fill="#FFC107" fill-opacity="0.9"/>
<path d="M16.2983 19.8764C26.4016 8.93309 35.0632 2.90625 40.6875 2.90625C46.3118 2.90625 54.9734 8.93309 65.0768 19.8764C65.3382 20.1596 65.7014 20.3273 66.0865 20.3426C66.4716 20.358 66.847 20.2197 67.1302 19.9583C67.4134 19.6969 67.5811 19.3336 67.5964 18.9486C67.6118 18.5635 67.4736 18.188 67.2121 17.9049C59.671 9.73594 48.9478 0 40.6875 0C32.4272 0 21.7041 9.73594 14.1629 17.9049C14.0334 18.0451 13.9329 18.2094 13.8669 18.3885C13.801 18.5676 13.771 18.7579 13.7786 18.9486C13.7939 19.3336 13.9616 19.6969 14.2448 19.9583C14.528 20.2197 14.9034 20.358 15.2885 20.3426C15.4792 20.335 15.6665 20.2899 15.8397 20.2099C16.013 20.1299 16.1688 20.0166 16.2983 19.8764Z" fill="#FFC107" fill-opacity="0.9"/>
<path d="M27.6094 29.0625C27.224 29.0625 26.8544 29.2156 26.5819 29.4881C26.3093 29.7606 26.1562 30.1302 26.1562 30.5156C26.1562 30.901 26.3093 31.2706 26.5819 31.5431C26.8544 31.8157 27.224 31.9688 27.6094 31.9688H40.6875C41.0729 31.9688 41.4425 31.8157 41.715 31.5431C41.9875 31.2706 42.1406 30.901 42.1406 30.5156C42.1406 30.1302 41.9875 29.7606 41.715 29.4881C41.4425 29.2156 41.0729 29.0625 40.6875 29.0625H27.6094Z" fill="#FFC107" fill-opacity="0.9"/>
<path d="M21.7969 31.9688C22.5994 31.9688 23.25 31.3182 23.25 30.5156C23.25 29.7131 22.5994 29.0625 21.7969 29.0625C20.9943 29.0625 20.3438 29.7131 20.3438 30.5156C20.3438 31.3182 20.9943 31.9688 21.7969 31.9688Z" fill="#FFC107" fill-opacity="0.9"/>
<path d="M33.4219 14.5312C34.2244 14.5312 34.875 13.8807 34.875 13.0781C34.875 12.2756 34.2244 11.625 33.4219 11.625C32.6193 11.625 31.9688 12.2756 31.9688 13.0781C31.9688 13.8807 32.6193 14.5312 33.4219 14.5312Z" fill="#FFC107" fill-opacity="0.9"/>
<path d="M37.7812 8.71875C38.5838 8.71875 39.2344 8.06816 39.2344 7.26562C39.2344 6.46309 38.5838 5.8125 37.7812 5.8125C36.9787 5.8125 36.3281 6.46309 36.3281 7.26562C36.3281 8.06816 36.9787 8.71875 37.7812 8.71875Z" fill="#FFC107" fill-opacity="0.9"/>
<path d="M40.6875 13.0781C41.49 13.0781 42.1406 12.4275 42.1406 11.625C42.1406 10.8225 41.49 10.1719 40.6875 10.1719C39.885 10.1719 39.2344 10.8225 39.2344 11.625C39.2344 12.4275 39.885 13.0781 40.6875 13.0781Z" fill="#FFC107" fill-opacity="0.9"/>
<path d="M45.0469 10.1719C45.8494 10.1719 46.5 9.52129 46.5 8.71875C46.5 7.91621 45.8494 7.26562 45.0469 7.26562C44.2443 7.26562 43.5938 7.91621 43.5938 8.71875C43.5938 9.52129 44.2443 10.1719 45.0469 10.1719Z" fill="#FFC107" fill-opacity="0.9"/>
<path d="M47.9531 15.9844C48.7557 15.9844 49.4062 15.3338 49.4062 14.5312C49.4062 13.7287 48.7557 13.0781 47.9531 13.0781C47.1506 13.0781 46.5 13.7287 46.5 14.5312C46.5 15.3338 47.1506 15.9844 47.9531 15.9844Z" fill="#FFC107" fill-opacity="0.9"/>
<path d="M53.7656 20.3438C54.5682 20.3438 55.2188 19.6932 55.2188 18.8906C55.2188 18.0881 54.5682 17.4375 53.7656 17.4375C52.9631 17.4375 52.3125 18.0881 52.3125 18.8906C52.3125 19.6932 52.9631 20.3438 53.7656 20.3438Z" fill="#FFC107" fill-opacity="0.9"/>
<path d="M43.5938 20.3438C44.3963 20.3438 45.0469 19.6932 45.0469 18.8906C45.0469 18.0881 44.3963 17.4375 43.5938 17.4375C42.7912 17.4375 42.1406 18.0881 42.1406 18.8906C42.1406 19.6932 42.7912 20.3438 43.5938 20.3438Z" fill="#FFC107" fill-opacity="0.9"/>
<path d="M36.3281 20.3438C37.1307 20.3438 37.7812 19.6932 37.7812 18.8906C37.7812 18.0881 37.1307 17.4375 36.3281 17.4375C35.5256 17.4375 34.875 18.0881 34.875 18.8906C34.875 19.6932 35.5256 20.3438 36.3281 20.3438Z" fill="#FFC107" fill-opacity="0.9"/>
<path d="M27.6094 20.3438C28.4119 20.3438 29.0625 19.6932 29.0625 18.8906C29.0625 18.0881 28.4119 17.4375 27.6094 17.4375C26.8068 17.4375 26.1562 18.0881 26.1562 18.8906C26.1562 19.6932 26.8068 20.3438 27.6094 20.3438Z" fill="#FFC107" fill-opacity="0.9"/>
<path d="M92.9927 49.405C92.9903 49.0617 92.8664 48.7303 92.6431 48.4696C92.4197 48.2089 92.1112 48.0357 91.7723 47.9807C92.5333 46.1247 92.9469 44.1448 92.9927 42.1394C92.9905 41.7569 92.8376 41.3908 92.5671 41.1203C92.2967 40.8499 91.9306 40.697 91.5481 40.6948C90.8946 40.706 90.2425 40.7606 89.5962 40.8582C90.2668 38.9023 90.2841 36.1933 90.0461 35.2386C90.137 34.8872 90.0759 35.1883 90.0937 27.6097C90.0937 27.2243 89.9406 26.8547 89.6681 26.5822C89.3956 26.3097 89.026 26.1566 88.6406 26.1566C88.2552 26.1566 87.8856 26.3097 87.6131 26.5822C87.3406 26.8547 87.1875 27.2243 87.1875 27.6097V34.0493C86.2086 34.0446 85.2324 34.1523 84.2781 34.3702C84.2247 30.9648 82.2423 28.151 81.375 27.0812V20.3437C81.375 19.9584 81.2219 19.5887 80.9494 19.3162C80.6769 19.0437 80.3073 18.8906 79.9219 18.8906C79.5365 18.8906 79.1669 19.0437 78.8943 19.3162C78.6218 19.5887 78.4687 19.9584 78.4687 20.3437V27.0808C77.601 28.151 75.617 30.9666 75.5656 34.3737C74.6113 34.1556 73.6351 34.0477 72.6562 34.0523V27.6094C72.6562 27.224 72.5031 26.8544 72.2306 26.5819C71.9581 26.3093 71.5885 26.1562 71.2031 26.1562C70.8177 26.1562 70.4481 26.3093 70.1756 26.5819C69.9031 26.8544 69.75 27.224 69.75 27.6094C69.7681 35.1627 69.7093 34.8901 69.7961 35.2326C69.6114 35.9521 69.4826 38.6399 70.2408 40.8557C68.9253 40.6652 67.4753 40.3758 66.9609 41.5757C66.3757 41.8902 65.8128 42.2444 65.2762 42.636C64.9648 40.5967 63.7268 38.1858 63.0725 37.4494C62.99 37.0959 63.0756 37.3907 59.581 30.666C59.4025 30.3244 59.0957 30.0678 58.7279 29.9524C58.3602 29.8371 57.9617 29.8726 57.6201 30.0511C57.2785 30.2296 57.0218 30.5364 56.9065 30.9042C56.7912 31.2719 56.8267 31.6704 57.0052 32.012L59.9881 37.7191C59.1183 38.1684 58.303 38.716 57.5581 39.3512C55.9337 36.3581 52.8734 34.7824 51.6092 34.236L48.4886 28.2651C48.3091 27.9253 48.0023 27.6704 47.6354 27.5562C47.2684 27.442 46.8712 27.4778 46.5306 27.6558C46.19 27.8338 45.9337 28.1395 45.818 28.506C45.7022 28.8725 45.7364 29.2699 45.9129 29.6112L49.0333 35.5818C48.7609 36.9319 48.3068 40.3455 49.8376 43.3889C48.8908 43.6373 47.9758 43.994 47.1107 44.452L44.1268 38.7429C43.9484 38.4013 43.6415 38.1446 43.2738 38.0293C42.906 37.9139 42.5075 37.9494 42.1659 38.1279C41.8244 38.3064 41.5677 38.6133 41.4524 38.981C41.337 39.3487 41.3725 39.7472 41.551 40.0888C45.0897 46.8206 44.8821 46.5527 45.1226 46.822C45.3024 47.5918 46.4613 50.0247 48.122 51.6014C47.5035 51.8134 46.9003 52.0679 46.3167 52.3628C45.9788 52.5419 45.7251 52.8471 45.6106 53.212C45.4962 53.577 45.5303 53.9724 45.7055 54.3124C46.6749 56.0683 47.9583 57.6315 49.492 58.9242C49.2173 59.13 49.0243 59.4263 48.9472 59.7607C48.8701 60.0952 48.9139 60.4461 49.0707 60.7513C50.0417 62.5101 51.3276 64.0755 52.8643 65.3696C52.5886 65.5749 52.3947 65.8713 52.3171 66.2062C52.2394 66.5411 52.2831 66.8926 52.4404 67.1983C53.4084 68.952 54.6896 70.5133 56.2205 71.8051C55.9467 72.0111 55.7546 72.3073 55.678 72.6412C55.6014 72.9752 55.6452 73.3254 55.8018 73.6302C55.9108 73.8422 58.5317 78.838 63.3842 80.3593C66.2056 81.2438 69.3696 80.8083 72.1182 79.7515C79.1946 93.2914 78.6642 92.4162 79.0467 92.7045C79.2089 92.8275 79.3952 92.915 79.5935 92.9612C79.7918 93.0075 79.9976 93.0114 80.1975 92.9728C80.3974 92.9342 80.5869 92.8539 80.7537 92.7372C80.9205 92.6204 81.0608 92.4698 81.1656 92.2952C81.6167 91.5474 81.2487 91.5868 81.375 76.9181C83.3396 76.6912 86.8671 75.9343 89.3891 73.4124C92.9856 69.8159 92.9934 64.1751 92.9922 63.9366C92.9898 63.5939 92.8663 63.263 92.6436 63.0025C92.421 62.742 92.1133 62.5686 91.7752 62.5129C92.5341 60.6592 92.9466 58.682 92.9922 56.6795C92.9898 56.3356 92.8655 56.0037 92.6414 55.7428C92.4174 55.482 92.108 55.309 91.7685 55.2547C92.5316 53.3963 92.9466 51.4134 92.9927 49.405ZM78.3174 52.1694C76.5831 50.1232 74.1426 48.9451 71.5362 48.3618C70.5216 46.8102 70.082 45.0067 69.8931 43.7447C74.8962 44.4945 77.5671 47.1599 78.3174 52.1694ZM78.3187 59.4439C76.5888 57.4022 74.1511 56.2209 71.5408 55.6354C70.5236 54.0819 70.0822 52.2751 69.8931 51.0103C74.9029 51.7612 77.5714 54.4339 78.3187 59.4439ZM78.316 66.6979C76.5862 64.657 74.1448 63.4756 71.5302 62.8918C70.5185 61.3408 70.0804 59.5394 69.8924 58.2798C74.9858 59.0332 77.5771 61.7878 78.316 66.6984V66.6979ZM58.6011 42.4478C59.3743 41.4222 60.5597 40.6859 61.4139 40.2517C63.1141 43.453 62.2154 44.7701 62.2451 45.4672C61.1012 46.8262 60.3106 48.4467 59.9438 50.1848L58.4906 47.4033C58.8203 45.771 58.8576 44.0931 58.6011 42.4478ZM51.6933 37.5344C54.8269 39.367 56.1153 41.8251 55.8301 45.4499C52.6963 43.6177 51.4085 41.1598 51.6933 37.5344ZM48.3723 47.0714C49.2191 46.6173 50.5033 46.0624 51.7881 46.0152C52.9911 47.1625 54.3877 48.0876 55.9133 48.7478L57.3723 51.5393C55.7338 50.8454 53.9492 50.5675 52.1773 50.7302C51.649 50.3284 50.0322 50.3019 48.3723 47.0714ZM55.8864 67.209C57.4224 66.6781 59.9234 66.0977 62.248 66.8267C62.4303 66.8846 62.6223 66.9059 62.8128 66.8894C63.0034 66.873 63.1888 66.819 63.3585 66.7308C63.5282 66.6425 63.6788 66.5216 63.8016 66.375C63.9245 66.2284 64.0171 66.059 64.0744 65.8764C64.1316 65.6939 64.1522 65.5019 64.1351 65.3114C64.1179 65.1209 64.0634 64.9357 63.9745 64.7663C63.8856 64.597 63.7641 64.4468 63.6171 64.3245C63.47 64.2022 63.3003 64.1101 63.1176 64.0536C60.5928 63.2622 58.03 63.588 56.12 64.0981C54.4958 63.1917 53.2666 61.7912 52.5137 60.7577C54.4742 60.0753 56.8248 59.7358 58.879 60.3808C59.061 60.4379 59.2526 60.4587 59.4427 60.4418C59.6328 60.4249 59.8176 60.3707 59.9868 60.2824C60.1559 60.194 60.306 60.0732 60.4285 59.9269C60.551 59.7806 60.6434 59.6115 60.7006 59.4294C60.7577 59.2474 60.7784 59.0558 60.7615 58.8657C60.7446 58.6757 60.6905 58.4908 60.6021 58.3216C60.5138 58.1525 60.393 58.0024 60.2467 57.8799C60.1003 57.7575 59.9313 57.665 59.7492 57.6079C57.2222 56.8148 54.6558 57.1418 52.745 57.6527C51.1256 56.7463 49.8999 55.3495 49.1485 54.3184C50.6777 53.7861 53.1716 53.2064 55.5143 53.942C59.1939 55.0943 61.3631 59.189 61.3843 59.2305C61.4071 59.2746 61.4322 59.3175 61.4594 59.3591C62.7283 61.3987 62.8001 62.9555 64.2203 62.9555C64.4699 62.9548 64.7152 62.8898 64.9325 62.7669C65.1498 62.644 65.3318 62.4672 65.461 62.2536C65.5902 62.04 65.6623 61.7968 65.6703 61.5473C65.6784 61.2978 65.6221 61.0504 65.5069 60.8289C65.0546 59.6911 61.4783 54.8166 62.9746 50.0429C63.7446 47.5846 65.8275 45.8016 67.1384 44.8814C67.339 45.9439 67.6489 46.9829 68.0633 47.9816C67.7245 48.0366 67.4161 48.2098 67.1929 48.4705C66.9696 48.7311 66.8459 49.0625 66.8437 49.4057C66.8896 51.4142 67.3041 53.3971 68.0665 55.2558C67.7273 55.3103 67.4183 55.4832 67.1944 55.7438C66.9706 56.0045 66.8463 56.3361 66.8437 56.6797C66.8896 58.6822 67.3021 60.6593 68.0607 62.5131C67.7224 62.5688 67.4147 62.7423 67.192 63.003C66.9693 63.2636 66.8459 63.5947 66.8437 63.9375C66.8426 64.1413 66.8508 68.2889 69.0961 71.7351C66.1698 69.8323 62.9366 69.6047 59.4691 70.5332C57.8576 69.6283 56.6364 68.2377 55.8864 67.209ZM59.2452 73.6371C61.2614 72.9352 63.5737 72.6199 65.6102 73.2593C67.9379 73.9891 69.6608 75.8969 70.6184 77.2094C65.8707 78.8598 62.2457 77.7513 59.2452 73.6371ZM69.8937 65.5428C74.8984 66.2928 77.5662 68.9564 78.3174 73.9664C73.3125 73.2157 70.6447 70.5521 69.8937 65.5421V65.5428ZM78.4687 85.6288C74.1559 77.4243 74.0331 76.8594 72.6713 75.0993C74.7729 76.3076 77.0378 76.7548 78.4687 76.9193V85.6288ZM78.4687 45.0867C77.3379 43.7124 75.8847 42.6392 74.2387 41.9624C73.9555 41.3599 72.536 40.5894 72.5611 36.9575C73.5208 36.9486 74.9168 37.0505 76.0778 37.6036C76.6127 39.1778 77.4222 40.6448 78.4687 41.9366V45.0867ZM79.9219 38.9746C77.9932 35.8996 77.9907 33.1236 79.9219 30.0435C81.8503 33.1185 81.8532 35.894 79.9219 38.9743V38.9746ZM81.375 41.937C82.4231 40.6435 83.2333 39.1742 83.7681 37.5976C84.9262 37.0487 86.3142 36.9473 87.2738 36.9541C87.3092 40.6268 85.9115 41.2973 85.5992 41.9624C83.9562 42.6363 82.5051 43.7056 81.375 45.0754V41.937ZM81.5187 73.9661C82.2685 68.9619 84.9322 66.293 89.9422 65.5425C89.1924 70.5461 86.5287 73.2152 81.5187 73.9657V73.9661ZM88.306 62.89C85.6819 63.4769 83.2448 64.6635 81.5205 66.6977C82.259 61.7883 84.8421 59.0492 89.9431 58.285C89.7546 59.544 89.3161 61.3415 88.306 62.8896V62.89ZM88.2939 55.6362C85.7091 56.216 83.2575 57.3886 81.5187 59.4424C82.2579 54.4871 84.8754 51.7698 89.9439 51.0105C89.7539 52.2749 89.3127 54.0824 88.2939 55.6365V55.6362ZM88.2977 48.3636C85.68 48.9492 83.2461 50.1303 81.5192 52.1681C82.2688 47.1643 84.934 44.4952 89.9431 43.7449C89.7541 45.0075 89.3138 46.8119 88.2977 48.3633V48.3636Z" fill="#FFC107" fill-opacity="0.9"/>
</g>
<defs>
<clipPath id="clip0">
<rect width="93" height="93" fill="white"/>
</clipPath>
</defs>
</svg>
