<svg width="93" height="93" viewBox="0 0 93 93" fill="none" xmlns="http://www.w3.org/2000/svg">
<g clip-path="url(#clip0)">
<path d="M42.3866 62.4364C36.3717 60.8296 29.5627 60.7219 24.7031 64.4909V58.9495C27.1892 60.0769 30.4217 59.5136 32.9994 58.6132C38.2364 56.7843 42.9798 50.4432 43.1792 50.1742C43.3204 49.9838 43.4127 49.7617 43.4483 49.5274C43.4839 49.2931 43.4617 49.0536 43.3835 48.8299C43.3054 48.6061 43.1737 48.4049 42.9999 48.2437C42.8261 48.0825 42.6156 47.9663 42.3866 47.9052C42.0632 47.8187 34.4036 45.8096 29.1664 47.6385C27.5642 48.1688 26.0573 48.9524 24.7031 49.9597V45.1922C26.7097 45.6882 29.1008 45.1922 31.0678 44.5056C35.4937 42.9596 39.6434 38.0014 39.818 37.7912C39.9777 37.5984 40.0849 37.3675 40.1292 37.1211C40.1734 36.8746 40.1533 36.6209 40.0708 36.3845C39.9882 36.1481 39.846 35.937 39.6579 35.7717C39.4698 35.6064 39.2422 35.4925 38.9972 35.441C34.1837 34.4325 28.8714 34.5241 24.7031 37.1746V34.5226C27.6779 33.1113 29.2158 27.3345 24.1945 20.9028C24.0574 20.7272 23.8818 20.5854 23.6812 20.4885C23.4806 20.3915 23.2603 20.342 23.0375 20.3438C22.8147 20.3456 22.5953 20.3985 22.3963 20.4986C22.1972 20.5987 22.0238 20.7432 21.8895 20.921C16.995 27.4008 18.541 33.3656 21.7965 34.626V37.5504C17.7138 34.3353 11.7387 34.2251 6.66585 35.3525C6.42453 35.4063 6.20094 35.5208 6.01622 35.6852C5.83151 35.8495 5.69179 36.0583 5.61027 36.2917C5.52876 36.5252 5.50816 36.7755 5.55041 37.0191C5.59266 37.2627 5.69638 37.4915 5.85173 37.6839C9.12526 41.7381 13.9088 45.3854 19.1062 45.3843C20.0303 45.4043 20.9478 45.2257 21.7969 44.8607V50.0627C16.9358 46.1725 9.98479 46.3027 3.98447 47.9052C3.75548 47.9663 3.54492 48.0825 3.37115 48.2437C3.19738 48.4049 3.06567 48.6061 2.9875 48.8299C2.90934 49.0536 2.88709 49.2931 2.9227 49.5274C2.9583 49.7617 3.05069 49.9838 3.19179 50.1742C7.14701 55.5123 13.6639 60.673 20.157 59.4228C20.7245 59.3168 21.2758 59.1374 21.7969 58.889V64.5939C16.942 60.7086 9.99132 60.8292 3.98447 62.4364C3.75548 62.4975 3.54492 62.6138 3.37115 62.7749C3.19738 62.9361 3.06567 63.1374 2.9875 63.3611C2.90934 63.5849 2.88709 63.8243 2.9227 64.0587C2.9583 64.293 3.05069 64.515 3.19179 64.7055C3.39159 64.9745 8.13459 71.3155 13.3717 73.1445C15.9978 74.0618 19.3022 74.6261 21.7969 73.4202V81.4378C19.2066 81.6779 16.728 82.6074 14.6185 84.1296C12.509 85.6518 10.8457 87.7112 9.80151 90.0937H7.26562C6.88023 90.0937 6.51062 90.2468 6.23811 90.5193C5.9656 90.7918 5.8125 91.1615 5.8125 91.5469C5.8125 91.9322 5.9656 92.3019 6.23811 92.5744C6.51062 92.8469 6.88023 93 7.26562 93H39.2344C39.6198 93 39.9894 92.8469 40.2619 92.5744C40.5344 92.3019 40.6875 91.9322 40.6875 91.5469C40.6875 91.1615 40.5344 90.7918 40.2619 90.5193C39.9894 90.2468 39.6198 90.0937 39.2344 90.0937H36.4404C35.4139 87.7514 33.7888 85.7206 31.7284 84.2056C29.668 82.6906 27.245 81.7448 24.7031 81.4634V73.4807C27.1892 74.6081 30.4217 74.0449 32.9994 73.1445C38.2364 71.3155 42.9798 64.9745 43.1792 64.7055C43.3204 64.515 43.4127 64.293 43.4483 64.0587C43.4839 63.8243 43.4617 63.5849 43.3835 63.3611C43.3054 63.1374 43.1737 62.9361 42.9999 62.7749C42.8261 62.6138 42.6156 62.4975 42.3866 62.4364ZM30.1247 50.3822C32.8097 49.4446 36.5548 49.751 39.3572 50.2369C37.6977 52.1007 34.873 54.8814 32.041 55.8703C23.7871 58.7522 21.8704 53.2648 30.1247 50.3822ZM24.7031 41.0617C25.4629 39.8109 27.5489 38.8584 28.9277 38.3768C30.9378 37.675 33.6028 37.7048 35.7136 37.9055C34.2672 39.2987 32.1698 41.0413 30.1097 41.761C28.7143 42.2485 25.7269 42.9683 24.7031 42.0491V41.0617ZM21.1473 41.7174C20.8961 42.437 18.94 42.9485 15.5399 41.761C13.4487 41.0306 11.3258 39.2129 9.88924 37.7856C11.9027 37.5636 14.6951 37.4619 16.7861 38.1925C20.1863 39.3797 21.3985 40.9979 21.1473 41.7174ZM14.33 55.8696C11.498 54.8807 8.67316 52.0998 7.01387 50.2362C9.47274 49.8107 13.4149 49.3932 16.2463 50.3815C24.5001 53.2646 22.5845 58.7526 14.33 55.8696ZM14.33 70.4008C11.498 69.4119 8.67316 66.631 7.01387 64.7674C9.47274 64.3418 13.4149 63.9244 16.2463 64.9127C24.5001 67.7959 22.5845 73.2838 14.33 70.4008ZM21.6365 28.678C21.626 27.3689 22.35 25.7277 23.0714 24.4457C23.8131 25.7159 24.5634 27.3453 24.5738 28.6542C24.6089 33.0223 21.6721 33.0984 21.6365 28.6785V28.678ZM33.189 90.0937H13.0529C17.5298 82.3546 28.7128 82.3558 33.189 90.0937ZM32.0414 70.4008C23.7906 73.2823 21.8712 67.7959 30.1251 64.9134C32.8101 63.9758 36.5552 64.2822 39.3575 64.7681C37.6977 66.6312 34.873 69.4119 32.0414 70.4008Z" fill="#FFC107" fill-opacity="0.9"/>
<path d="M1.45312 92.9999C2.25566 92.9999 2.90625 92.3494 2.90625 91.5468C2.90625 90.7443 2.25566 90.0937 1.45312 90.0937C0.650586 90.0937 0 90.7443 0 91.5468C0 92.3494 0.650586 92.9999 1.45312 92.9999Z" fill="#FFC107" fill-opacity="0.9"/>
<path d="M45.0469 92.9999C45.8494 92.9999 46.5 92.3494 46.5 91.5468C46.5 90.7443 45.8494 90.0937 45.0469 90.0937C44.2443 90.0937 43.5938 90.7443 43.5938 91.5468C43.5938 92.3494 44.2443 92.9999 45.0469 92.9999Z" fill="#FFC107" fill-opacity="0.9"/>
<path d="M30.544 32.1086C30.9186 32.1084 31.2786 31.9635 31.549 31.7041C31.8193 31.4448 31.9791 31.0911 31.9949 30.7168C32.9363 8.50293 57.1661 -4.00412 75.7171 6.88415C76.0495 7.07925 76.4458 7.13432 76.8188 7.03724C77.1918 6.94015 77.5109 6.69887 77.706 6.36647C77.9011 6.03407 77.9562 5.63778 77.8591 5.26477C77.762 4.89177 77.5208 4.57261 77.1884 4.37751C56.3654 -7.84327 30.1058 6.65637 29.091 30.5939C29.0827 30.7898 29.1141 30.9854 29.1834 31.1688C29.2527 31.3523 29.3584 31.5198 29.4942 31.6614C29.6299 31.8029 29.7929 31.9155 29.9733 31.9923C30.1537 32.0692 30.3479 32.1087 30.544 32.1086Z" fill="#FFC107" fill-opacity="0.9"/>
<path d="M86.2306 12.2956C85.9932 11.992 85.6449 11.7951 85.2623 11.7483C84.8798 11.7014 84.4943 11.8085 84.1907 12.0459C83.8871 12.2833 83.6902 12.6316 83.6434 13.0142C83.5965 13.3967 83.7036 13.7822 83.941 14.0858C87.9486 19.1831 90.1167 25.4847 90.0937 31.9687C90.0937 55.7738 63.0369 69.2288 44.0725 55.5707C43.7598 55.3461 43.3707 55.2549 42.9907 55.3169C42.6107 55.379 42.2709 55.5894 42.0458 55.9018C41.8208 56.2142 41.729 56.6032 41.7905 56.9833C41.852 57.3634 42.0619 57.7035 42.374 57.929C63.285 72.9895 93 58.1081 93 31.9687C93.025 24.8355 90.6396 17.9031 86.2306 12.2956Z" fill="#FFC107" fill-opacity="0.9"/>
<path d="M34.9113 30.5926C34.9014 30.7832 34.9291 30.9739 34.9929 31.1538C35.0566 31.3336 35.1552 31.4992 35.2829 31.6409C35.5409 31.9273 35.9021 32.0994 36.287 32.1194C36.6719 32.1395 37.049 32.0058 37.3353 31.7478C37.6216 31.4898 37.7937 31.1287 37.8138 30.7438C38.1341 24.6928 40.8041 19.0059 45.2552 14.8943C49.7062 10.7827 55.5866 8.57131 61.644 8.731C67.7013 8.89068 73.457 11.4089 77.6852 15.7493C81.9135 20.0897 84.2802 25.9093 84.2813 31.9688C84.2813 50.7785 63.0838 61.6345 47.8509 51.1115C47.6939 51.0017 47.5168 50.9241 47.3297 50.883C47.1427 50.842 46.9493 50.8383 46.7608 50.8722C46.5723 50.9061 46.3924 50.977 46.2314 51.0807C46.0704 51.1843 45.9314 51.3189 45.8226 51.4764C45.7137 51.634 45.6371 51.8116 45.5971 51.9988C45.5571 52.1861 45.5545 52.3795 45.5895 52.5678C45.6245 52.7561 45.6963 52.9356 45.8009 53.0961C45.9055 53.2565 46.0408 53.3947 46.199 53.5026C63.3415 65.3454 87.1875 53.1284 87.1875 31.9688C87.1875 17.5465 75.4535 5.81251 61.0313 5.81251C54.3311 5.80811 47.8851 8.37684 43.0244 12.9882C38.1637 17.5997 35.2594 23.9016 34.9113 30.5926Z" fill="#FFC107" fill-opacity="0.9"/>
<path d="M59.5781 27.8593C54.9721 29.493 56.1633 36.3281 61.0312 36.3281C61.9324 36.327 62.8111 36.047 63.5468 35.5267C64.2826 35.0064 64.8393 34.2711 65.1407 33.4219H69.75C70.1354 33.4219 70.505 33.2688 70.7775 32.9963C71.05 32.7238 71.2031 32.3541 71.2031 31.9687C71.2031 31.5834 71.05 31.2137 70.7775 30.9412C70.505 30.6687 70.1354 30.5156 69.75 30.5156H65.1407C64.9226 29.9036 64.5711 29.3477 64.1117 28.8883C63.6523 28.4289 63.0964 28.0774 62.4844 27.8593V18.8906C62.4844 18.5052 62.3313 18.1356 62.0588 17.8631C61.7862 17.5906 61.4166 17.4375 61.0312 17.4375C60.6459 17.4375 60.2762 17.5906 60.0037 17.8631C59.7312 18.1356 59.5781 18.5052 59.5781 18.8906V27.8593ZM61.0312 30.5156C61.3186 30.5156 61.5996 30.6008 61.8386 30.7605C62.0775 30.9202 62.2638 31.1471 62.3738 31.4127C62.4837 31.6782 62.5125 31.9704 62.4565 32.2522C62.4004 32.5341 62.262 32.793 62.0588 32.9963C61.8555 33.1995 61.5966 33.3379 61.3147 33.394C61.0329 33.45 60.7407 33.4212 60.4752 33.3113C60.2096 33.2013 59.9827 33.015 59.823 32.7761C59.6633 32.5371 59.5781 32.2561 59.5781 31.9687C59.5786 31.5835 59.7318 31.2141 60.0042 30.9417C60.2766 30.6693 60.646 30.5161 61.0312 30.5156Z" fill="#FFC107" fill-opacity="0.9"/>
<path d="M61.0312 14.5312C61.8338 14.5312 62.4844 13.8807 62.4844 13.0781C62.4844 12.2756 61.8338 11.625 61.0312 11.625C60.2287 11.625 59.5781 12.2756 59.5781 13.0781C59.5781 13.8807 60.2287 14.5312 61.0312 14.5312Z" fill="#FFC107" fill-opacity="0.9"/>
<path d="M61.0312 52.3125C61.8338 52.3125 62.4844 51.6619 62.4844 50.8594C62.4844 50.0568 61.8338 49.4062 61.0312 49.4062C60.2287 49.4062 59.5781 50.0568 59.5781 50.8594C59.5781 51.6619 60.2287 52.3125 61.0312 52.3125Z" fill="#FFC107" fill-opacity="0.9"/>
<path d="M42.1406 33.4218C42.9432 33.4218 43.5938 32.7712 43.5938 31.9687C43.5938 31.1661 42.9432 30.5156 42.1406 30.5156C41.3381 30.5156 40.6875 31.1661 40.6875 31.9687C40.6875 32.7712 41.3381 33.4218 42.1406 33.4218Z" fill="#FFC107" fill-opacity="0.9"/>
<path d="M79.9219 33.4218C80.7244 33.4218 81.375 32.7712 81.375 31.9687C81.375 31.1661 80.7244 30.5156 79.9219 30.5156C79.1193 30.5156 78.4688 31.1661 78.4688 31.9687C78.4688 32.7712 79.1193 33.4218 79.9219 33.4218Z" fill="#FFC107" fill-opacity="0.9"/>
<path d="M47.6736 20.0641C48.4761 20.0641 49.1267 19.4136 49.1267 18.611C49.1267 17.8085 48.4761 17.1579 47.6736 17.1579C46.871 17.1579 46.2205 17.8085 46.2205 18.611C46.2205 19.4136 46.871 20.0641 47.6736 20.0641Z" fill="#FFC107" fill-opacity="0.9"/>
<path d="M73.3614 46.3547C73.5646 46.5579 73.8235 46.6963 74.1054 46.7524C74.3873 46.8084 74.6795 46.7796 74.945 46.6697C75.2105 46.5597 75.4374 46.3734 75.5971 46.1345C75.7568 45.8955 75.842 45.6145 75.842 45.3272C75.842 45.0398 75.7568 44.7588 75.5971 44.5198C75.4374 44.2809 75.2105 44.0946 74.945 43.9846C74.6795 43.8747 74.3873 43.8459 74.1054 43.9019C73.8235 43.958 73.5646 44.0964 73.3614 44.2996C73.2264 44.4345 73.1194 44.5947 73.0464 44.771C72.9733 44.9474 72.9357 45.1363 72.9357 45.3272C72.9357 45.518 72.9733 45.7069 73.0464 45.8833C73.1194 46.0596 73.2264 46.2198 73.3614 46.3547Z" fill="#FFC107" fill-opacity="0.9"/>
<path d="M75.4172 19.6386C75.6204 19.4354 75.7588 19.1765 75.8149 18.8946C75.8709 18.6127 75.8421 18.3206 75.7322 18.055C75.6222 17.7895 75.4359 17.5626 75.197 17.4029C74.958 17.2432 74.677 17.158 74.3896 17.158C74.1023 17.158 73.8213 17.2432 73.5823 17.4029C73.3434 17.5626 73.1571 17.7895 73.0471 18.055C72.9372 18.3206 72.9084 18.6127 72.9644 18.8946C73.0205 19.1765 73.1589 19.4354 73.3621 19.6386C73.497 19.7736 73.6572 19.8806 73.8335 19.9537C74.0099 20.0267 74.1988 20.0643 74.3896 20.0643C74.5805 20.0643 74.7694 20.0267 74.9458 19.9537C75.1221 19.8806 75.2823 19.7736 75.4172 19.6386Z" fill="#FFC107" fill-opacity="0.9"/>
<path d="M81.375 10.1719C82.1775 10.1719 82.8281 9.52129 82.8281 8.71875C82.8281 7.91621 82.1775 7.26562 81.375 7.26562C80.5725 7.26562 79.9219 7.91621 79.9219 8.71875C79.9219 9.52129 80.5725 10.1719 81.375 10.1719Z" fill="#FFC107" fill-opacity="0.9"/>
<path d="M47.6736 46.7795C48.4761 46.7795 49.1267 46.1289 49.1267 45.3264C49.1267 44.5238 48.4761 43.8732 47.6736 43.8732C46.871 43.8732 46.2205 44.5238 46.2205 45.3264C46.2205 46.1289 46.871 46.7795 47.6736 46.7795Z" fill="#FFC107" fill-opacity="0.9"/>
</g>
<defs>
<clipPath id="clip0">
<rect width="93" height="93" fill="white"/>
</clipPath>
</defs>
</svg>
