<svg width="93" height="93" viewBox="0 0 93 93" fill="none" xmlns="http://www.w3.org/2000/svg">
<path d="M71.2031 81.375H50.8594C50.0889 81.3759 49.3502 81.6824 48.8054 82.2272C48.2605 82.7721 47.954 83.5107 47.9531 84.2812V91.5469C47.9531 91.9323 48.1062 92.3019 48.3787 92.5744C48.6512 92.8469 49.0209 93 49.4062 93C49.7916 93 50.1613 92.8469 50.4338 92.5744C50.7063 92.3019 50.8594 91.9323 50.8594 91.5469V84.2812H71.2031V91.5469C71.2031 91.9323 71.3562 92.3019 71.6287 92.5744C71.9012 92.8469 72.2709 93 72.6562 93C73.0416 93 73.4113 92.8469 73.6838 92.5744C73.9563 92.3019 74.1094 91.9323 74.1094 91.5469V84.2812C74.1085 83.5107 73.802 82.7721 73.2571 82.2272C72.7123 81.6824 71.9736 81.3759 71.2031 81.375Z" fill="#FFC107" fill-opacity="0.9"/>
<path d="M49.4063 69.803V77.0156C49.4063 77.401 49.5594 77.7706 49.8319 78.0431C50.1044 78.3157 50.474 78.4688 50.8594 78.4688C51.2448 78.4688 51.6144 78.3157 51.8869 78.0431C52.1594 77.7706 52.3125 77.401 52.3125 77.0156V69.7427C52.3427 69.4757 51.3024 62.7977 56.2788 57.8211L70.8464 43.2554C72.2398 41.862 74.517 41.7735 75.9291 43.0555L76.0688 43.1891C76.7442 43.8719 77.1222 44.7941 77.1205 45.7545C77.1188 46.715 76.7375 47.6358 76.0597 48.3162L66.9765 57.3983C66.7742 57.6018 66.6366 57.8607 66.581 58.1423C66.5254 58.4239 66.5544 58.7157 66.6642 58.9809C66.7741 59.246 66.96 59.4728 67.1984 59.6326C67.4368 59.7924 67.7172 59.8781 68.0043 59.8789C69.0977 59.8789 68.6921 59.5701 78.1102 50.3748L84.2813 44.3864V37.7812C84.2813 37.3959 84.1282 37.0262 83.8557 36.7537C83.5831 36.4812 83.2135 36.3281 82.8281 36.3281C82.4428 36.3281 82.0731 36.4812 81.8006 36.7537C81.5281 37.0262 81.375 37.3959 81.375 37.7812V43.1578L79.9194 44.5706C78.9894 39.4534 72.6356 37.3575 68.7917 41.201L54.2241 55.7668C50.6665 59.3238 48.9569 64.3068 49.4063 69.803Z" fill="#FFC107" fill-opacity="0.9"/>
<path d="M93 16.4605C92.9715 14.6891 90.9242 13.6013 89.4691 13.6013C84.8018 13.6013 81.3979 17.276 81.3752 22.3454V26.1563C81.3752 26.5416 81.5283 26.9113 81.8008 27.1838C82.0733 27.4563 82.4429 27.6094 82.8283 27.6094C83.2137 27.6094 83.5833 27.4563 83.8558 27.1838C84.1284 26.9113 84.2814 26.5416 84.2814 26.1563V22.352C84.3042 17.2886 88.7771 15.828 90.0939 16.7429V47.4534L67.1509 76.8685C66.9844 77.0832 66.8813 77.3403 66.8534 77.6106C66.8255 77.881 66.8738 78.1537 66.9929 78.3979C67.112 78.6422 67.2971 78.8482 67.5273 78.9927C67.7575 79.1371 68.0235 79.2142 68.2953 79.2153C69.655 79.2153 68.3726 79.6654 92.9995 48.4528L93 16.4605Z" fill="#FFC107" fill-opacity="0.9"/>
<path d="M58.125 87.1875H55.2188C54.8334 87.1875 54.4637 87.3406 54.1912 87.6131C53.9187 87.8856 53.7656 88.2552 53.7656 88.6406C53.7656 89.026 53.9187 89.3956 54.1912 89.6681C54.4637 89.9407 54.8334 90.0938 55.2188 90.0938H58.125C58.5104 90.0938 58.88 89.9407 59.1525 89.6681C59.425 89.3956 59.5781 89.026 59.5781 88.6406C59.5781 88.2552 59.425 87.8856 59.1525 87.6131C58.88 87.3406 58.5104 87.1875 58.125 87.1875Z" fill="#FFC107" fill-opacity="0.9"/>
<path d="M42.1406 81.375H21.7969C21.0264 81.3759 20.2877 81.6824 19.7429 82.2272C19.198 82.7721 18.8915 83.5107 18.8906 84.2812V91.5469C18.8906 91.9323 19.0437 92.3019 19.3162 92.5744C19.5887 92.8469 19.9584 93 20.3438 93C20.7291 93 21.0988 92.8469 21.3713 92.5744C21.6438 92.3019 21.7969 91.9323 21.7969 91.5469V84.2812H42.1406V91.5469C42.1406 91.9323 42.2937 92.3019 42.5662 92.5744C42.8387 92.8469 43.2084 93 43.5938 93C43.9791 93 44.3488 92.8469 44.6213 92.5744C44.8938 92.3019 45.0469 91.9323 45.0469 91.5469V84.2812C45.046 83.5107 44.7395 82.7721 44.1946 82.2272C43.6498 81.6824 42.9111 81.3759 42.1406 81.375Z" fill="#FFC107" fill-opacity="0.9"/>
<path d="M26.0231 59.4541C26.1581 59.3191 26.2651 59.1589 26.3381 58.9826C26.4112 58.8063 26.4487 58.6174 26.4487 58.4265C26.4487 58.2357 26.4112 58.0467 26.3381 57.8704C26.2651 57.6941 26.1581 57.5339 26.0231 57.399L16.9411 48.317C16.2631 47.6366 15.8816 46.7158 15.8798 45.7553C15.8779 44.7948 16.2559 43.8726 16.9313 43.1896L17.0711 43.0561C18.4832 41.7741 20.7606 41.8622 22.154 43.2559L36.7216 57.8217C39.6769 60.777 41.0873 64.9672 40.6931 69.6207C40.6855 79.8298 40.6875 76.2146 40.6875 77.0156C40.6875 77.401 40.8406 77.7706 41.1131 78.0432C41.3856 78.3157 41.7552 78.4688 42.1406 78.4688C42.526 78.4688 42.8956 78.3157 43.1681 78.0432C43.4407 77.7706 43.5938 77.401 43.5938 77.0156V69.8031C44.0431 64.3066 42.3335 59.3235 38.7761 55.766L24.2085 41.2003C20.3632 37.3548 14.0099 39.4565 13.0807 44.5701L11.625 43.1578V22.3389C11.6021 17.2759 8.19817 13.602 3.53109 13.602C2.07579 13.6013 0.0285176 14.6891 0 16.4606V48.4528L7.28779 57.7962C7.40465 57.9481 7.55039 58.0754 7.71663 58.1707C7.88287 58.266 8.06633 58.3275 8.25643 58.3516C8.44653 58.3758 8.63952 58.362 8.82431 58.3113C9.00909 58.2605 9.18201 58.1737 9.33311 58.0559C9.48421 57.938 9.61051 57.7914 9.70473 57.6246C9.79896 57.4577 9.85925 57.2739 9.88214 57.0836C9.90503 56.8934 9.89006 56.7005 9.8381 56.516C9.78613 56.3316 9.6982 56.1592 9.57936 56.0089L2.90625 47.4534V16.7429C4.21824 15.8307 8.69586 17.2729 8.71875 22.3454V44.3864L14.8983 50.3844L23.9682 59.4541C24.2407 59.7265 24.6103 59.8796 24.9957 59.8796C25.381 59.8796 25.7506 59.7265 26.0231 59.4541Z" fill="#FFC107" fill-opacity="0.9"/>
<path d="M24.7041 79.2153C24.9759 79.2143 25.242 79.1373 25.4722 78.9928C25.7025 78.8484 25.8877 78.6423 26.0068 78.398C26.1259 78.1537 26.1742 77.8809 26.1462 77.6105C26.1182 77.3402 26.0151 77.083 25.8484 76.8683L18.5065 67.4559C18.3896 67.304 18.2439 67.1767 18.0776 67.0814C17.9114 66.9861 17.728 66.9246 17.5379 66.9005C17.3478 66.8764 17.1548 66.8901 16.97 66.9408C16.7852 66.9916 16.6123 67.0784 16.4612 67.1962C16.3101 67.3141 16.1838 67.4607 16.0895 67.6275C15.9953 67.7944 15.935 67.9782 15.9121 68.1685C15.8892 68.3587 15.9042 68.5516 15.9562 68.7361C16.0081 68.9205 16.0961 69.0929 16.2149 69.2432L23.5568 78.6558C23.6927 78.8304 23.8668 78.9716 24.0656 79.0685C24.2645 79.1655 24.4828 79.2157 24.7041 79.2153Z" fill="#FFC107" fill-opacity="0.9"/>
<path d="M37.7812 87.1875H34.875C34.4896 87.1875 34.12 87.3406 33.8475 87.6131C33.575 87.8856 33.4219 88.2552 33.4219 88.6406C33.4219 89.026 33.575 89.3956 33.8475 89.6681C34.12 89.9407 34.4896 90.0938 34.875 90.0938H37.7812C38.1666 90.0938 38.5363 89.9407 38.8088 89.6681C39.0813 89.3956 39.2344 89.026 39.2344 88.6406C39.2344 88.2552 39.0813 87.8856 38.8088 87.6131C38.5363 87.3406 38.1666 87.1875 37.7812 87.1875Z" fill="#FFC107" fill-opacity="0.9"/>
<path d="M55.1749 38.1603C53.2188 38.6709 51.4307 39.6855 49.9891 41.1029C49.7139 41.3727 49.5571 41.7407 49.5532 42.1261C49.5493 42.5115 49.6987 42.8826 49.9685 43.1579C50.2383 43.4331 50.6063 43.5899 50.9917 43.5938C51.3771 43.5977 51.7482 43.4483 52.0235 43.1785C53.3843 41.8445 55.1449 40.9932 57.0356 40.7549C58.9263 40.5165 60.843 40.9043 62.4923 41.8589C64.1504 42.8216 65.6098 40.3082 63.9515 39.3455C62.3932 38.4428 60.6464 37.915 58.849 37.8039C57.5115 36.1619 55.8579 34.8051 53.9862 33.814C52.1146 32.8229 50.063 32.2176 47.9531 32.0341V26.4578C50.305 27.7837 53.3585 27.3987 55.8973 26.5123C60.7717 24.8099 64.943 18.3708 65.1178 18.0974C65.2367 17.9119 65.3118 17.7017 65.3375 17.4829C65.3632 17.264 65.3388 17.0422 65.2662 16.8342C65.1935 16.6261 65.0745 16.4374 64.9182 16.2821C64.7618 16.1269 64.5721 16.0092 64.3636 15.938C64.0563 15.8332 56.7837 13.3907 51.9092 15.0929C50.4791 15.568 49.141 16.2849 47.9531 17.2123V14.3756C50.9287 13.0954 52.7504 7.26997 47.5787 0.565436C47.4418 0.387876 47.2656 0.244412 47.064 0.146273C46.8624 0.0481332 46.6408 -0.00201957 46.4166 -0.000260448C46.1924 0.00149868 45.9716 0.0551219 45.7716 0.156413C45.5715 0.257703 45.3977 0.403913 45.2635 0.5836C40.2352 7.32247 42.091 13.0847 45.0468 14.3701V16.9892C43.9279 16.1737 42.6904 15.5346 41.3777 15.0943C36.5035 13.3922 29.2305 15.8345 28.9233 15.9395C28.7148 16.0107 28.5251 16.1283 28.3688 16.2836C28.2124 16.4388 28.0934 16.6276 28.0207 16.8356C27.9481 17.0437 27.9237 17.2655 27.9494 17.4843C27.9751 17.7032 28.0502 17.9133 28.1691 18.0988C28.3442 18.3722 32.5153 24.8114 37.3896 26.5137C39.8417 27.3705 42.736 27.7489 45.0476 26.6105V32.0341C42.9377 32.2176 40.8861 32.8228 39.0145 33.8139C37.1428 34.805 35.4892 36.1617 34.1517 37.8038C32.3736 37.9134 30.6447 38.4309 29.0988 39.3161C27.7624 40.0221 28.2661 42.0552 29.7778 42.0552H30.169L30.5074 41.8587C36.2554 38.5223 43.5937 42.6659 43.5937 49.4062C43.5937 49.7916 43.7468 50.1612 44.0193 50.4338C44.2918 50.7063 44.6614 50.8594 45.0468 50.8594C45.4322 50.8594 45.8018 50.7063 46.0744 50.4338C46.3469 50.1612 46.5 49.7916 46.5 49.4062C46.4966 46.8374 45.6439 44.3418 44.0747 42.308C42.5055 40.2741 40.3078 38.8162 37.8239 38.1612C40.217 36.0423 43.3029 34.8724 46.4992 34.8722C49.6956 34.8721 52.7816 36.0416 55.1749 38.1603ZM52.8676 17.8371C55.3551 16.9683 58.954 17.519 61.5118 18.149C59.959 20.1496 57.4051 22.908 54.9392 23.7688C47.5144 26.3622 45.455 20.4258 52.8676 17.8371ZM38.347 23.7688C35.7403 22.8586 33.2017 19.989 31.7798 18.1477C34.039 17.5919 37.8124 16.9269 40.4188 17.8371C47.8871 20.4455 45.7205 26.3448 38.347 23.7689V23.7688ZM45.0158 8.41649C45.0052 7.08797 45.7283 5.42541 46.4498 4.12596C47.1922 5.41379 47.942 7.06454 47.9527 8.39287C47.9894 12.8641 45.0521 12.905 45.0158 8.41667V8.41649Z" fill="#FFC107" fill-opacity="0.9"/>
<path d="M13.0781 63.9375C13.8807 63.9375 14.5312 63.2869 14.5312 62.4844C14.5312 61.6818 13.8807 61.0312 13.0781 61.0312C12.2756 61.0312 11.625 61.6818 11.625 62.4844C11.625 63.2869 12.2756 63.9375 13.0781 63.9375Z" fill="#FFC107" fill-opacity="0.9"/>
<path d="M82.8281 33.4219C83.6307 33.4219 84.2812 32.7713 84.2812 31.9688C84.2812 31.1662 83.6307 30.5156 82.8281 30.5156C82.0256 30.5156 81.375 31.1662 81.375 31.9688C81.375 32.7713 82.0256 33.4219 82.8281 33.4219Z" fill="#FFC107" fill-opacity="0.9"/>
<path d="M45.0469 56.6719C45.8494 56.6719 46.5 56.0213 46.5 55.2188C46.5 54.4162 45.8494 53.7656 45.0469 53.7656C44.2443 53.7656 43.5938 54.4162 43.5938 55.2188C43.5938 56.0213 44.2443 56.6719 45.0469 56.6719Z" fill="#FFC107" fill-opacity="0.9"/>
</svg>
